<?xml version="1.0" encoding="utf-8"?>
<!-- Generator: Adobe Illustrator 23.0.1, SVG Export Plug-In . SVG Version: 6.00 Build 0)  -->
<svg version="1.1" id="Laag_1" xmlns="http://www.w3.org/2000/svg" xmlns:xlink="http://www.w3.org/1999/xlink" x="0px" y="0px"
	 viewBox="0 0 745 300" style="enable-background:new 0 0 745 300;" xml:space="preserve">
<style type="text/css">
	.st0{fill:#6284BF;}
	.st1{fill-rule:evenodd;clip-rule:evenodd;fill:#6284BF;}
	.st2{clip-path:url(#SVGID_2_);fill:#6284BF;}
	.st3{clip-path:url(#SVGID_2_);fill-rule:evenodd;clip-rule:evenodd;fill:#FBB03B;}
	.st4{fill-rule:evenodd;clip-rule:evenodd;fill:#FBB03B;}
	.st5{fill-rule:evenodd;clip-rule:evenodd;fill:#FFFFFF;}
	.st6{fill:#FBB03B;}
</style>
<g>
	<path class="st0" d="M326.4,89.1c1.6-0.3,3.1-0.5,4.6-0.7c1.5-0.2,3.1-0.2,4.7-0.2c1.6,0,3.1,0.1,4.4,0.2c1.4,0.2,3.8,0.8,5.4,1.1
		c0.5,2.9-0.2,16.8-0.2,19.4c1.4-2.7,5-15.8,20.7-20.7c6-1.9,11.5-1.9,15.9-1.9c12.7,0,22.1,4,28.1,11.8c6.1,7.9,9.1,19.6,9.1,35.1
		v76.3c-1.6,0.3-3.4,0.5-5.4,0.7c-2,0.2-3.8,0.2-5.4,0.2c-1.6,0-3.4-0.1-5.3-0.2c-1.9-0.2-3.7-0.4-5.3-0.7v-69.9
		c0-11.1-1.6-19.3-4.8-24.5c-3.2-5.2-8.2-7.9-15.1-7.9c-4,0-7.9,0.8-11.5,2.3c-3.6,1.6-6.8,4-9.5,7.3c-2.7,3.3-4.9,7.5-6.6,12.8
		c-1.7,5.2-2.5,11.5-2.5,18.9v61c-1.6,0.3-3.4,0.5-5.3,0.7c-1.9,0.2-3.7,0.2-5.3,0.2c-1.6,0-3.4-0.1-5.4-0.2c-2-0.2-3.8-0.4-5.4-0.7
		V89.1L326.4,89.1z"/>
	<path class="st0" d="M530.7,151.7c-2.1-0.3-4.8-0.6-8-0.9c-3.2-0.3-6-0.5-8.3-0.5c-8.8,0-15.4,1.8-20,5.3
		c-4.6,3.5-6.9,8.9-6.9,16.1c0,4.6,0.8,8.2,2.3,10.8c1.6,2.6,3.5,4.6,5.8,6c2.3,1.4,4.9,2.2,7.7,2.5c2.8,0.3,5.5,0.5,8,0.5
		c3.2,0,6.6-0.2,10.1-0.6c3.5-0.4,6.5-1,9.2-1.7V151.7L530.7,151.7z M530.7,129.5c0-9-2.1-15.3-6.4-18.8c-4.2-3.5-10.4-5.3-18.4-5.3
		c-4.9,0-9.6,0.4-13.9,1.3c-4.3,0.8-8.5,2-12.6,3.3c-2.7-5.1-4-11.1-4-18.1c4.8-1.7,10.1-3,15.9-3.9c5.8-0.9,11.4-1.4,16.7-1.4
		c14.1,0,24.8,3.5,32.2,10.5c7.3,7,11,18.1,11,33.4v75.8c-4.9,2.9-32.3,3.7-39.6,3.7c-6.9,0-13.2-0.7-18.7-2.1
		c-5.6-1.4-10.3-3.6-14.2-6.7c-3.9-3.1-6.9-7-9-11.7c-2.1-4.7-3.2-10.5-3.2-17.2c0-6.6,1.2-12.4,3.7-17.3c2.5-5,5.8-9.1,10.1-12.4
		c4.2-3.3,9.1-5.7,14.6-7.4c5.5-1.6,11.3-2.4,17.4-2.4c4.5,0,8.2,0.1,11.1,0.3c2.9,0.2,5.3,0.5,7.3,0.8V129.5L530.7,129.5z"/>
	<path class="st0" d="M601.1,89.3c1.6-0.3,3-0.5,4.4-0.7c1.4-0.2,2.9-0.2,4.4-0.2c1.6,0,3.1,0.1,4.7,0.2c1.6,0.2,3,0.4,4.2,0.7
		c0.4,2.3,1.8,16.3,0.8,18.7c4.5-10.5,7.1-11.9,12.3-14.7c5.4-2.9,11.6-4.7,19.2-4.7c1.1,0,2.3,0,3.5,0.1c1.2,0.1,2.2,0.2,3.1,0.3
		c0.3,1.4,0.5,2.8,0.6,4.4c0.1,1.5,0.2,3.1,0.2,4.8c0,1.8-0.1,3.8-0.3,5.7c-0.2,2-0.5,3.9-0.7,5.7c-1.1-0.3-2.3-0.5-3.5-0.5
		c-1.2,0-2.2,0-2.9,0c-3.8,0-7.5,0.6-10.9,1.7c-3.5,1.2-6.6,3.2-9.3,6.1c-2.8,2.9-4.9,6.9-6.6,11.9c-1.6,5.1-2.4,11.6-2.4,19.5v58.6
		c-1.6,0.3-3.3,0.5-5.2,0.7c-1.9,0.2-3.6,0.2-5.2,0.2c-1.6,0-3.3-0.1-5.2-0.2c-1.9-0.2-3.7-0.4-5.4-0.7V89.3L601.1,89.3z"/>
	<path class="st0" d="M27.4,297.8c-2.1,0.5-4.2,1-6.3,1.2c-2.2,0.3-4.4,0.4-6.8,0.4c-2.2,0-4.5-0.1-6.8-0.4
		c-2.3-0.3-4.4-0.7-6.3-1.2V1.6c2.1-0.5,4.2-1,6.5-1.2C9.7,0.1,12,0,14.2,0c2.2,0,4.5,0.1,6.7,0.4c2.2,0.3,4.4,0.7,6.5,1.2v153.9
		V297.8L27.4,297.8z"/>
	<path class="st0" d="M157.2,163.7l-113.1,0c-0.7-2.2-1.2-4.6-1.5-7c-0.3-2.4-0.5-4.9-0.5-7.3c0-2.4,0.2-4.9,0.5-7.3
		c0.3-2.4,0.9-4.8,1.5-7l113.2,0.1l0-133.5c1.9-0.5,4-1,6.2-1.2c2.2-0.3,4.5-0.4,6.7-0.4c2.2,0,4.5,0.1,6.8,0.4
		c2.3,0.3,4.5,0.7,6.6,1.2v296.2c-1.9,0.5-4,1-6.2,1.2c-2.2,0.3-4.6,0.4-7,0.4c-2.2,0-4.5-0.1-6.8-0.4c-2.3-0.3-4.4-0.7-6.3-1.2
		L157.2,163.7L157.2,163.7z"/>
	<path class="st1" d="M719.6,267.2c-1.8-3.4-3.9-6.4-7.5-7.8c0.2,7.5,0.8,14.9,1.3,22.3c0.1,0.9,1.4,12.3,1.8,14.5
		c0.1,0.5,0.1,1.3,0.8,1.3c0.6,0,0.8-0.7,0.8-1.3C717.5,293,719.8,267.8,719.6,267.2L719.6,267.2z"/>
	<path class="st1" d="M711.3,253.3c1.5,2,5.8,6.2,9.2,8.3c0.3-5.8,0.7-12,1-17.8c0.2-5.4,0.4-10.9,0.6-16.3c0-1.6,0-3.2,0-4.8
		c-1.1-2.4-3.3-3.3-5.2-4.5c-2.3-1.4-4.5-3.3-7.1-4.1c0.2,6.1,0.4,12.1,0.6,18.2C710.4,237.1,711.2,251,711.3,253.3L711.3,253.3z"/>
	<path class="st1" d="M709.4,199.7c3.1,2.7,13,8,13.7,7.9c0.3-8.4,0.5-17.6,0.7-26c0-1.1,0.5-15.8,0.6-22c0.5-7.1,0-14.3,0.7-21.4
		c-2-3.9-4.9-6.9-8.6-9c-1.5-0.9-3-0.9-4.5,0.4c-1.4,1.2-3.2,1.6-4.4,3.1c0.2,10.4,0.5,20.8,0.7,31.3c0,1.4,0.2,14.9,0.4,20.2
		C709.6,189.3,709.3,194.5,709.4,199.7L709.4,199.7z"/>
	<g>
		<defs>
			<rect id="SVGID_1_" x="1" width="743.9" height="300"/>
		</defs>
		<clipPath id="SVGID_2_">
			<use xlink:href="#SVGID_1_"  style="overflow:visible;"/>
		</clipPath>
		<path class="st2" d="M707.3,110.3c0,0-0.7-22-0.7-22c1.5-0.3,3.2-0.5,5-0.7c1.8-0.1,3.5-0.2,5-0.2c1.4,0,3,0.1,4.8,0.2
			c1.8,0.2,3.5,0.4,5,0.7c0,0-0.6,28.7-0.6,28.6c-3.4-2.1-5.7-3.2-8.6-4.3C713.7,111.2,709.5,110.4,707.3,110.3L707.3,110.3z"/>
		<path class="st3" d="M724,118.4c0.5,0.3,2.7,1.7,3.4,2.3c3.6,2.8,6.9,6,9.6,9.8c6,8.2,9.3,17.3,7.5,27.8
			c-2.1,12.4-10.6,19.1-20.6,23.4c0.1-6.3,0.4-12.9,0.5-19.1c3.2-1.1,5.9-6.4,5.2-10.9c-0.6-3.9-2-7.5-4.5-10.5
			c-2-3.9-4.9-6.9-8.6-9c-1.5-0.8-9.6,3.6-10,3.8c-4.4,2-9,3.7-13.8,4.1c-0.9,0.1-3.6-1.1-3.3-3.9c0.8-6.7,3.8-12.6,7.9-17.6
			c2.5-3.1,5.6-5.3,9.5-5.8C713.2,112.5,718.7,115.1,724,118.4L724,118.4z"/>
	</g>
	<path class="st4" d="M708.6,170.4c-7.2,2.2-14.9,4.8-20.4,10.6c-4.9,5.2-5.3,12.8-1.2,18.8c2.9,4.2,6.6,7.2,10.6,10
		c4,2.7,16.9,10.5,19.2,11.9c1.9,1.2,4.1,2,5.2,4.3c2.1,1.6,2,2.6-0.1,4.6c-0.2,5.3-0.5,10.6-0.7,15.9c3.2-1,6.5-2.2,9.3-4.4
		c7.4-5.8,8.4-15.9,2.4-23.3c-2.4-3-5.3-5.4-8.4-7.5c-0.8-0.5-3.3-2.1-3.9-2.4c-3.9-2.3-7.8-4.5-11.7-6.7c-3.1-1.6-6.1-3.3-8.6-5.8
		c-2.2-2.3-2.1-4.3,0.4-6.2c2.3-1.7,5.8-1.8,8.4-2.8C709,181.8,708.7,175.7,708.6,170.4L708.6,170.4z"/>
	<path class="st4" d="M710.4,234.8c-3.3,1.2-6.5,2.6-9.5,4.8c-5.5,4.1-6.6,10.5-3,16.7c2.9,4.9,7.3,7.9,11.4,11.3
		c1,0.8,7.6,6.1,9.3,9.5c0.3,0.5-0.2,2.4-0.1,2.9c-0.6,5.7-1.4,11.4-1.9,17.3c4.2-6,9.3-10.4,10.2-17.9c0.7-5.2-0.3-8.3-3.1-11.9
		c-1.2-1.5-13.7-12.8-14.1-13.3c-1-1.2-2.9-1.9-2.5-3.7c0.4-1.9,2.4-1.5,3.7-2C710.9,243,710.5,239.2,710.4,234.8L710.4,234.8z"/>
	<path class="st5" d="M703.5,123.6c0.5,0.7,0,1.9-1,2.6c-1,0.7-2.3,0.6-2.8-0.1c-0.5-0.7,0-1.9,1-2.6
		C701.8,122.8,703,122.8,703.5,123.6L703.5,123.6z"/>
	<path class="st1" d="M727.2,62.8c0,5.9-4.8,10.7-10.7,10.7c-5.9,0-10.7-4.8-10.7-10.7c0-5.9,4.8-10.7,10.7-10.7
		C722.4,52.1,727.2,56.9,727.2,62.8L727.2,62.8z"/>
	<path class="st0" d="M254.9,88.5c1.6-0.3,3.4-0.5,5.3-0.7c1.9-0.2,3.7-0.2,5.3-0.2c1.4,0,3.1,0.1,5.1,0.2c1.9,0.2,3.7,0.4,5.3,0.7
		v120.6c-1.6,0.3-3.4,0.5-5.3,0.7s-3.7,0.2-5.3,0.2c-1.4,0-3.1-0.1-5.1-0.2c-1.9-0.2-3.7-0.4-5.3-0.7V88.5L254.9,88.5z"/>
	<path class="st1" d="M276,62.6c0,5.8-4.7,10.5-10.5,10.5c-5.8,0-10.5-4.7-10.5-10.5c0-5.8,4.7-10.5,10.5-10.5
		C271.3,52.1,276,56.8,276,62.6L276,62.6z"/>
	<path class="st0" d="M257.8,284.6h4.5c2.3,0,4-0.5,5.1-1.4c1.1-0.9,1.6-2.4,1.6-4.3c0-1.9-0.5-3.3-1.6-4.2
		c-1.1-0.8-2.9-1.3-5.3-1.3h-4.3V284.6L257.8,284.6z M257.8,287.5v12.1h-3.3v-29.1h7.7c3.5,0,6,0.7,7.7,2c1.7,1.4,2.5,3.4,2.5,6.2
		c0,3.9-1.9,6.5-5.7,7.8l7.7,13.1h-3.9l-6.8-12.1H257.8L257.8,287.5z"/>
	<path class="st0" d="M288.3,280.1c-1.7,0-3,0.6-4.1,1.7c-1,1.1-1.6,2.7-1.8,4.7h11c0-2.1-0.5-3.7-1.4-4.8
		C291.3,280.7,290,280.1,288.3,280.1L288.3,280.1z M289.2,300c-3.1,0-5.6-1-7.4-2.9c-1.8-2-2.7-4.7-2.7-8.2c0-3.5,0.8-6.3,2.5-8.4
		c1.7-2.1,3.9-3.1,6.8-3.1c2.6,0,4.7,0.9,6.3,2.7c1.5,1.8,2.3,4.2,2.3,7.1v2.1h-14.5c0.1,2.6,0.7,4.5,1.9,5.8c1.2,1.3,2.9,2,5,2
		c2.3,0,4.5-0.5,6.7-1.5v2.9c-1.1,0.5-2.2,0.9-3.2,1.1C291.9,299.9,290.6,300,289.2,300L289.2,300z"/>
	<path class="st0" d="M317.9,293.6c0,2-0.7,3.6-2.2,4.7c-1.5,1.1-3.5,1.7-6.2,1.7c-2.8,0-5-0.5-6.6-1.4v-3.1c1,0.5,2.1,1,3.3,1.3
		c1.2,0.3,2.3,0.5,3.4,0.5c1.7,0,3-0.3,3.9-0.8c0.9-0.6,1.3-1.4,1.3-2.5c0-0.8-0.4-1.6-1.1-2.2c-0.7-0.6-2.1-1.3-4.2-2.1
		c-2-0.8-3.4-1.4-4.2-2c-0.8-0.6-1.4-1.2-1.8-1.9c-0.4-0.7-0.6-1.6-0.6-2.6c0-1.8,0.7-3.2,2.1-4.2c1.4-1,3.3-1.5,5.8-1.5
		c2.3,0,4.5,0.5,6.7,1.4l-1.1,2.7c-2.1-0.9-4-1.4-5.8-1.4c-1.5,0-2.7,0.2-3.4,0.7c-0.8,0.5-1.2,1.2-1.2,2c0,0.6,0.1,1.1,0.4,1.5
		c0.3,0.4,0.8,0.8,1.4,1.2c0.6,0.4,1.9,0.9,3.7,1.6c2.5,0.9,4.2,1.9,5.1,2.8C317.5,291,317.9,292.2,317.9,293.6L317.9,293.6z"/>
	<path class="st0" d="M333.1,280.1c-1.7,0-3,0.6-4.1,1.7c-1,1.1-1.6,2.7-1.8,4.7h11c0-2.1-0.5-3.7-1.4-4.8
		C336,280.7,334.8,280.1,333.1,280.1L333.1,280.1z M334,300c-3.1,0-5.6-1-7.4-2.9c-1.8-2-2.7-4.7-2.7-8.2c0-3.5,0.8-6.3,2.5-8.4
		c1.7-2.1,3.9-3.1,6.8-3.1c2.6,0,4.7,0.9,6.3,2.7c1.5,1.8,2.3,4.2,2.3,7.1v2.1h-14.5c0.1,2.6,0.7,4.5,1.9,5.8c1.2,1.3,2.9,2,5,2
		c2.3,0,4.5-0.5,6.7-1.5v2.9c-1.1,0.5-2.2,0.9-3.2,1.1C336.6,299.9,335.4,300,334,300L334,300z"/>
	<path class="st0" d="M354.8,297.3c2,0,3.6-0.6,4.7-1.7c1.1-1.1,1.7-2.7,1.7-4.7v-2L358,289c-2.5,0.1-4.4,0.5-5.5,1.2
		c-1.1,0.7-1.7,1.8-1.7,3.4c0,1.2,0.3,2.1,1,2.7C352.6,297,353.6,297.3,354.8,297.3L354.8,297.3z M362.1,299.6l-0.6-3.1h-0.2
		c-1.1,1.4-2.1,2.3-3.2,2.8c-1,0.5-2.4,0.7-3.9,0.7c-2.1,0-3.7-0.6-4.9-1.7c-1.2-1.1-1.8-2.7-1.8-4.8c0-4.4,3.4-6.7,10.2-6.9
		l3.6-0.1v-1.4c0-1.7-0.4-3-1.1-3.8c-0.7-0.8-1.9-1.2-3.4-1.2c-1.8,0-3.7,0.6-6,1.7l-1-2.5c1-0.6,2.2-1,3.4-1.4
		c1.2-0.3,2.5-0.5,3.7-0.5c2.5,0,4.4,0.6,5.6,1.7c1.2,1.2,1.8,3,1.8,5.6v14.9H362.1L362.1,299.6z"/>
	<path class="st0" d="M382.5,277.4c0.9,0,1.8,0.1,2.5,0.2l-0.4,3.1c-0.9-0.2-1.6-0.3-2.3-0.3c-1.7,0-3.2,0.7-4.4,2.2
		c-1.2,1.4-1.8,3.2-1.8,5.4v11.7h-3.2v-21.8h2.6l0.4,4h0.2c0.8-1.4,1.7-2.5,2.8-3.3C380,277.8,381.2,277.4,382.5,277.4L382.5,277.4z
		"/>
	<path class="st0" d="M399.4,300c-3.1,0-5.4-1-7.1-2.9c-1.7-1.9-2.5-4.7-2.5-8.3c0-3.6,0.9-6.5,2.6-8.5c1.7-2,4.1-3,7.3-3
		c1,0,2,0.1,3,0.3c1,0.2,1.8,0.5,2.4,0.8l-1,2.8c-0.7-0.3-1.5-0.5-2.3-0.7c-0.8-0.2-1.6-0.3-2.2-0.3c-4.3,0-6.4,2.8-6.4,8.5
		c0,2.7,0.5,4.7,1.6,6.2c1,1.4,2.6,2.2,4.7,2.2c1.8,0,3.6-0.4,5.4-1.2v2.9C403.3,299.6,401.5,300,399.4,300L399.4,300z"/>
	<path class="st0" d="M426,299.6v-14.1c0-1.8-0.4-3.1-1.2-4c-0.8-0.9-2-1.3-3.7-1.3c-2.2,0-3.8,0.6-4.9,1.9c-1,1.2-1.5,3.3-1.5,6.1
		v11.4h-3.2v-31h3.2v9.4c0,1.1,0,2.1-0.2,2.8h0.2c0.6-1.1,1.5-1.9,2.7-2.5c1.2-0.6,2.5-0.9,4-0.9c2.6,0,4.5,0.6,5.8,1.9
		c1.3,1.3,1.9,3.3,1.9,6v14.2H426L426,299.6z"/>
	<path class="st0" d="M459.4,280.3H454v19.3h-3.2v-19.3H447v-1.5l3.8-1.2v-1.2c0-5.4,2.3-8,6.8-8c1.1,0,2.4,0.2,3.9,0.7l-0.8,2.6
		c-1.2-0.4-2.3-0.6-3.2-0.6c-1.2,0-2.1,0.4-2.7,1.2c-0.6,0.8-0.9,2.2-0.9,4v1.4h5.4V280.3L459.4,280.3z"/>
	<path class="st0" d="M467.3,288.7c0,2.8,0.5,4.9,1.6,6.4c1.1,1.5,2.7,2.2,4.8,2.2c2.1,0,3.7-0.7,4.8-2.2c1.1-1.5,1.6-3.6,1.6-6.4
		c0-2.8-0.5-4.9-1.6-6.3c-1.1-1.4-2.7-2.2-4.8-2.2c-2.1,0-3.7,0.7-4.7,2.1C467.8,283.7,467.3,285.9,467.3,288.7L467.3,288.7z
		 M483.3,288.7c0,3.6-0.9,6.3-2.6,8.3c-1.7,2-4.1,3-7.2,3c-1.9,0-3.6-0.5-5-1.4c-1.5-0.9-2.6-2.2-3.4-3.9c-0.8-1.7-1.2-3.7-1.2-6
		c0-3.6,0.9-6.3,2.6-8.3c1.7-2,4.1-3,7.2-3c3,0,5.3,1,7,3C482.5,282.5,483.3,285.2,483.3,288.7L483.3,288.7z"/>
	<path class="st0" d="M500.5,277.4c0.9,0,1.8,0.1,2.5,0.2l-0.4,3.1c-0.9-0.2-1.6-0.3-2.3-0.3c-1.7,0-3.2,0.7-4.4,2.2
		c-1.2,1.4-1.8,3.2-1.8,5.4v11.7h-3.2v-21.8h2.6l0.4,4h0.2c0.8-1.4,1.7-2.5,2.8-3.3C497.9,277.8,499.1,277.4,500.5,277.4
		L500.5,277.4z"/>
	<polygon class="st6" points="544.2,299.6 538.3,299.6 538.3,287 527.1,287 527.1,299.6 521.1,299.6 521.1,270.5 527.1,270.5 
		527.1,281.9 538.3,281.9 538.3,270.5 544.2,270.5 544.2,299.6 	"/>
	<path class="st6" d="M561.7,281.2c-1.2,0-2.2,0.4-2.9,1.2c-0.7,0.8-1.1,2-1.2,3.5h8.2c0-1.5-0.4-2.7-1.1-3.5
		C563.9,281.7,562.9,281.2,561.7,281.2L561.7,281.2z M562.5,300c-3.5,0-6.2-1-8.1-3c-2-2-2.9-4.8-2.9-8.4c0-3.7,0.9-6.6,2.7-8.6
		c1.8-2,4.3-3.1,7.5-3.1c3,0,5.4,0.9,7.1,2.7c1.7,1.8,2.5,4.3,2.5,7.4v2.9h-13.9c0.1,1.7,0.6,3.1,1.5,4c0.9,1,2.2,1.5,3.9,1.5
		c1.3,0,2.5-0.1,3.7-0.4c1.2-0.3,2.4-0.7,3.6-1.3v4.7c-1,0.5-2.1,0.9-3.3,1.2C565.6,299.9,564.2,300,562.5,300L562.5,300z"/>
	<path class="st6" d="M589.9,289.3l-2.3,0.1c-1.7,0.1-3,0.4-3.8,1c-0.8,0.6-1.2,1.5-1.2,2.7c0,1.7,1,2.6,2.9,2.6
		c1.4,0,2.4-0.4,3.3-1.2c0.8-0.8,1.2-1.9,1.2-3.2V289.3L589.9,289.3z M591.6,299.6l-1.1-3h-0.2c-1,1.3-2,2.2-3.1,2.7
		c-1,0.5-2.4,0.7-4.1,0.7c-2.1,0-3.7-0.6-4.9-1.8c-1.2-1.2-1.8-3-1.8-5.2c0-2.4,0.8-4.1,2.4-5.2c1.6-1.1,4-1.7,7.2-1.9l3.7-0.1v-1
		c0-2.3-1.1-3.4-3.4-3.4c-1.7,0-3.7,0.5-6.1,1.6l-1.9-4.1c2.5-1.3,5.2-2,8.2-2c2.9,0,5.1,0.7,6.6,1.9c1.5,1.3,2.3,3.3,2.3,5.9v14.8
		H591.6L591.6,299.6z"/>
	<polygon class="st6" points="609.6,299.6 603.7,299.6 603.7,268.6 609.6,268.6 609.6,299.6 	"/>
	<path class="st6" d="M626.7,295.2c1,0,2.3-0.2,3.7-0.7v4.5c-1.5,0.7-3.3,1-5.4,1c-2.4,0-4.1-0.6-5.1-1.8c-1.1-1.2-1.6-3.1-1.6-5.5
		v-10.7h-2.8v-2.6l3.2-2l1.7-4.7h3.8v4.7h6v4.6h-6v10.7c0,0.9,0.2,1.5,0.7,1.9C625.3,295,625.9,295.2,626.7,295.2L626.7,295.2z"/>
	<path class="st6" d="M656.5,299.6h-5.9v-13c0-3.2-1.2-4.8-3.5-4.8c-1.6,0-2.8,0.6-3.6,1.7c-0.7,1.2-1.1,3-1.1,5.6v10.5h-5.9v-31
		h5.9v6.3c0,0.5,0,1.6-0.1,3.5l-0.1,1.8h0.3c1.3-2.2,3.4-3.3,6.2-3.3c2.5,0,4.5,0.7,5.8,2.1c1.3,1.4,2,3.4,2,6.1V299.6L656.5,299.6z
		"/>
</g>
</svg>
