<?xml version="1.0" encoding="utf-8"?>
<!-- Generator: Adobe Illustrator 23.0.1, SVG Export Plug-In . SVG Version: 6.00 Build 0)  -->
<svg version="1.1" id="Laag_1" xmlns="http://www.w3.org/2000/svg" xmlns:xlink="http://www.w3.org/1999/xlink" x="0px" y="0px"
	 viewBox="0 0 873 300" style="enable-background:new 0 0 873 300;" xml:space="preserve">
<style type="text/css">
	.st0{fill:#004990;}
	.st1{fill:#A67C52;}
</style>
<path class="st0" d="M89.7,207.2c-53,0-89.2-42-89.2-102.8C0.4,43.3,37.3,1,90.3,1c53.5,0,89.5,42.1,89.5,102.8
	C179.8,164.6,143.2,207.2,89.7,207.2 M90,18.9c-41.7,0-69.1,34.5-69.1,84.9c0,51,27.6,85.5,69.4,85.5c41.7,0,69.1-34.6,69.1-84.9
	C159.4,53.4,131.7,18.9,90,18.9"/>
<polygon class="st0" points="761.4,206.8 761.4,1.1 871.6,1.1 871.6,19.6 782,19.6 782,89.9 853.9,89.9 853.5,108.4 782,108.4 
	782,188.3 871.7,188.3 871.7,206.8 "/>
<g>
	<path class="st0" d="M606,113.2c28.3-5.9,48.9-24.1,48.9-56c0-35.8-25.6-56-65.9-56h-52.4v205.6h20.5V133H557V89.6h0.1V19.3h31
		c29.8,0,45.9,14,45.9,39c0,26.2-19.1,39.9-49.5,39.9h-0.8v17.7l65.5,91.2h24.1L606,113.2"/>
</g>
<g>
	<polygon class="st0" points="364.2,1.3 343.2,1.3 262.6,206.7 283.4,206.7 308.5,140.7 366.1,140.7 366.1,122.7 315.9,122.7 
		353.2,25.3 391.1,122.7 391.1,122.7 398.3,141.8 423.6,207.2 445.2,207.2 	"/>
</g>
<g>
	<path class="st1" d="M8.2,283.1v16.4H1.5v-41h11.6c5.3,0,9.2,1,11.7,3c2.5,2,3.8,5,3.8,9c0,5.1-2.7,8.7-8,10.9l11.6,18.1h-7.6
		l-9.8-16.4H8.2z M8.2,277.5h4.7c3.1,0,5.4-0.6,6.8-1.7c1.4-1.2,2.1-2.9,2.1-5.2c0-2.3-0.8-4-2.3-5c-1.5-1-3.8-1.5-6.8-1.5H8.2
		V277.5z"/>
	<path class="st1" d="M53.4,300c-4.8,0-8.6-1.4-11.3-4.2c-2.7-2.8-4.1-6.7-4.1-11.6c0-5.1,1.3-9,3.8-11.9s6-4.3,10.4-4.3
		c4.1,0,7.3,1.2,9.7,3.7c2.4,2.5,3.6,5.9,3.6,10.3v3.6H44.8c0.1,3,0.9,5.3,2.4,6.9c1.5,1.6,3.7,2.4,6.5,2.4c1.8,0,3.5-0.2,5.1-0.5
		c1.6-0.3,3.3-0.9,5.1-1.7v5.4c-1.6,0.8-3.2,1.3-4.9,1.6S55.5,300,53.4,300z M52.2,272.9c-2.1,0-3.8,0.7-5,2c-1.3,1.3-2,3.3-2.3,5.8
		H59c0-2.6-0.7-4.5-1.8-5.8S54.3,272.9,52.2,272.9z"/>
	<path class="st1" d="M96.2,290.6c0,3-1.1,5.3-3.3,7c-2.2,1.6-5.4,2.4-9.5,2.4c-4.1,0-7.4-0.6-9.9-1.9v-5.7c3.6,1.7,7,2.5,10.2,2.5
		c4.1,0,6.1-1.2,6.1-3.7c0-0.8-0.2-1.4-0.7-2s-1.2-1.1-2.2-1.6c-1-0.6-2.5-1.2-4.3-1.9c-3.6-1.4-6-2.8-7.2-4.1
		c-1.3-1.4-1.9-3.2-1.9-5.4c0-2.7,1.1-4.7,3.2-6.2c2.1-1.5,5-2.2,8.7-2.2c3.6,0,7.1,0.7,10.3,2.2l-2.1,5c-3.3-1.4-6.2-2.1-8.4-2.1
		c-3.5,0-5.2,1-5.2,3c0,1,0.5,1.8,1.4,2.5c0.9,0.7,2.9,1.6,5.9,2.8c2.6,1,4.4,1.9,5.6,2.7c1.2,0.8,2,1.8,2.6,2.8
		C95.9,287.8,96.2,289.1,96.2,290.6z"/>
	<path class="st1" d="M119.2,300c-4.8,0-8.6-1.4-11.3-4.2c-2.7-2.8-4.1-6.7-4.1-11.6c0-5.1,1.3-9,3.8-11.9s6-4.3,10.4-4.3
		c4.1,0,7.3,1.2,9.7,3.7s3.6,5.9,3.6,10.3v3.6h-20.6c0.1,3,0.9,5.3,2.4,6.9c1.5,1.6,3.7,2.4,6.5,2.4c1.8,0,3.5-0.2,5.1-0.5
		c1.6-0.3,3.3-0.9,5.1-1.7v5.4c-1.6,0.8-3.2,1.3-4.9,1.6S121.3,300,119.2,300z M118,272.9c-2.1,0-3.8,0.7-5,2
		c-1.3,1.3-2,3.3-2.3,5.8h14.1c0-2.6-0.7-4.5-1.8-5.8C121.8,273.5,120.1,272.9,118,272.9z"/>
	<path class="st1" d="M160.6,299.4l-1.3-4.3H159c-1.5,1.9-3,3.2-4.5,3.9c-1.5,0.7-3.5,1-5.8,1c-3,0-5.4-0.8-7.1-2.5s-2.6-4-2.6-7
		c0-3.2,1.2-5.6,3.6-7.2c2.4-1.6,6-2.5,10.8-2.7l5.4-0.2v-1.7c0-2-0.5-3.5-1.4-4.4c-0.9-1-2.4-1.5-4.3-1.5c-1.6,0-3.1,0.2-4.6,0.7
		c-1.5,0.5-2.9,1-4.2,1.7l-2.1-4.7c1.7-0.9,3.5-1.5,5.5-2c2-0.5,3.9-0.7,5.7-0.7c3.9,0,6.9,0.9,8.9,2.6c2,1.7,3,4.4,3,8.1v20.9
		H160.6z M150.7,295c2.4,0,4.3-0.7,5.8-2c1.4-1.3,2.2-3.2,2.2-5.6v-2.7l-4,0.2c-3.1,0.1-5.4,0.6-6.8,1.6c-1.4,0.9-2.1,2.3-2.1,4.2
		c0,1.4,0.4,2.5,1.2,3.2C147.9,294.6,149.1,295,150.7,295z"/>
	<path class="st1" d="M192.6,267.9c1.3,0,2.4,0.1,3.3,0.3l-0.6,6.1c-0.9-0.2-1.9-0.3-2.9-0.3c-2.6,0-4.8,0.9-6.4,2.6
		c-1.6,1.7-2.5,3.9-2.5,6.7v16.2h-6.6v-31h5.2l0.9,5.5h0.3c1-1.8,2.4-3.3,4-4.4S190.7,267.9,192.6,267.9z"/>
	<path class="st1" d="M216.5,300c-4.7,0-8.3-1.4-10.7-4.1c-2.4-2.7-3.7-6.7-3.7-11.8c0-5.2,1.3-9.2,3.8-12c2.5-2.8,6.2-4.2,11.1-4.2
		c3.3,0,6.2,0.6,8.8,1.8l-2,5.3c-2.8-1.1-5.1-1.6-6.9-1.6c-5.4,0-8,3.6-8,10.7c0,3.5,0.7,6.1,2,7.8c1.3,1.7,3.3,2.6,5.9,2.6
		c2.9,0,5.7-0.7,8.3-2.2v5.7c-1.2,0.7-2.4,1.2-3.8,1.5C220,299.9,218.4,300,216.5,300z"/>
	<path class="st1" d="M262.1,299.4h-6.6v-19c0-2.4-0.5-4.2-1.4-5.4c-1-1.2-2.5-1.8-4.6-1.8c-2.8,0-4.8,0.8-6.1,2.5
		c-1.3,1.7-1.9,4.4-1.9,8.3v15.4h-6.6v-43.6h6.6v11.1c0,1.8-0.1,3.7-0.3,5.7h0.4c0.9-1.5,2.1-2.7,3.7-3.5c1.6-0.8,3.5-1.2,5.6-1.2
		c7.5,0,11.3,3.8,11.3,11.3V299.4z"/>
	<path class="st1" d="M290.6,260.2c0-1.2,0.3-2.1,1-2.7c0.6-0.6,1.6-1,2.8-1c1.2,0,2.1,0.3,2.7,1c0.6,0.6,1,1.5,1,2.7
		c0,1.1-0.3,2-1,2.6s-1.5,1-2.7,1c-1.2,0-2.1-0.3-2.8-1S290.6,261.4,290.6,260.2z M297.5,299.4H291v-31h6.6V299.4z"/>
	<path class="st1" d="M336.6,299.4H330v-19c0-2.4-0.5-4.2-1.4-5.4s-2.5-1.8-4.6-1.8c-2.8,0-4.8,0.8-6.1,2.5s-1.9,4.4-1.9,8.3v15.4
		h-6.6v-31h5.2l0.9,4.1h0.3c0.9-1.5,2.3-2.6,4-3.4c1.7-0.8,3.6-1.2,5.7-1.2c7.4,0,11.1,3.8,11.1,11.3V299.4z"/>
	<path class="st1" d="M377,294.7c1.6,0,3.2-0.3,4.8-0.8v5c-0.7,0.3-1.7,0.6-2.8,0.8c-1.1,0.2-2.3,0.3-3.6,0.3
		c-6.2,0-9.4-3.3-9.4-9.9v-16.7h-4.2v-2.9l4.5-2.4l2.2-6.6h4.1v6.9h8.8v5h-8.8V290c0,1.6,0.4,2.8,1.2,3.5S375.8,294.7,377,294.7z"/>
	<path class="st1" d="M417.7,299.4h-6.6v-19c0-2.4-0.5-4.2-1.4-5.4s-2.5-1.8-4.6-1.8c-2.8,0-4.8,0.8-6.1,2.5
		c-1.3,1.7-1.9,4.4-1.9,8.3v15.4h-6.6v-43.6h6.6v11.1c0,1.8-0.1,3.7-0.3,5.7h0.4c0.9-1.5,2.1-2.7,3.7-3.5c1.6-0.8,3.5-1.2,5.6-1.2
		c7.5,0,11.3,3.8,11.3,11.3V299.4z"/>
	<path class="st1" d="M442.8,300c-4.8,0-8.6-1.4-11.3-4.2c-2.7-2.8-4.1-6.7-4.1-11.6c0-5.1,1.3-9,3.8-11.9c2.5-2.9,6-4.3,10.4-4.3
		c4.1,0,7.3,1.2,9.7,3.7s3.6,5.9,3.6,10.3v3.6h-20.6c0.1,3,0.9,5.3,2.4,6.9c1.5,1.6,3.7,2.4,6.5,2.4c1.8,0,3.5-0.2,5.1-0.5
		s3.3-0.9,5.1-1.7v5.4c-1.6,0.8-3.2,1.3-4.9,1.6C446.8,299.8,444.9,300,442.8,300z M441.6,272.9c-2.1,0-3.8,0.7-5,2
		c-1.3,1.3-2,3.3-2.3,5.8h14.1c0-2.6-0.7-4.5-1.8-5.8S443.7,272.9,441.6,272.9z"/>
	<path class="st0" d="M506.1,299.4h-23.6v-41h23.6v7.1h-14.9v9h13.9v7.1h-13.9v10.6h14.9V299.4z"/>
	<path class="st0" d="M545.3,299.4h-8.5v-18.3c0-2.3-0.4-4-1.2-5.1c-0.8-1.1-2.1-1.7-3.8-1.7c-2.4,0-4.1,0.8-5.2,2.4
		c-1.1,1.6-1.6,4.2-1.6,7.9v14.7h-8.5v-31.3h6.5l1.1,4h0.5c1-1.5,2.3-2.7,3.9-3.4c1.7-0.8,3.6-1.2,5.7-1.2c3.6,0,6.4,1,8.3,3
		c1.9,2,2.8,4.8,2.8,8.5V299.4z"/>
	<path class="st0" d="M564,299.4L552,268.1h8.9L567,286c0.7,2.3,1.1,4.4,1.3,6.4h0.2c0.1-1.8,0.5-3.9,1.3-6.4l6-17.8h8.9l-11.9,31.3
		H564z"/>
	<path class="st0" d="M591.2,260c0-2.8,1.5-4.2,4.7-4.2c3.1,0,4.7,1.4,4.7,4.2c0,1.3-0.4,2.4-1.2,3.1c-0.8,0.7-1.9,1.1-3.5,1.1
		C592.7,264.2,591.2,262.8,591.2,260z M600.1,299.4h-8.5v-31.3h8.5V299.4z"/>
	<path class="st0" d="M629,267.5c1.2,0,2.1,0.1,2.9,0.3l-0.6,8c-0.7-0.2-1.5-0.3-2.5-0.3c-2.7,0-4.9,0.7-6.4,2.1
		c-1.5,1.4-2.3,3.4-2.3,5.9v15.9h-8.5v-31.3h6.5l1.3,5.3h0.4c1-1.8,2.3-3.2,3.9-4.2C625.2,268.1,627,267.5,629,267.5z"/>
	<path class="st0" d="M668.4,283.7c0,5.1-1.3,9.1-4,12c-2.7,2.9-6.4,4.3-11.2,4.3c-3,0-5.7-0.7-8-2c-2.3-1.3-4.1-3.2-5.3-5.7
		c-1.2-2.5-1.8-5.3-1.8-8.6c0-5.1,1.3-9.1,4-11.9c2.7-2.8,6.4-4.3,11.3-4.3c3,0,5.7,0.7,8,2c2.3,1.3,4.1,3.2,5.3,5.6
		S668.4,280.4,668.4,283.7z M646.7,283.7c0,3.1,0.5,5.4,1.5,7c1,1.6,2.7,2.4,5,2.4c2.3,0,3.9-0.8,4.9-2.4c1-1.6,1.5-3.9,1.5-7
		c0-3.1-0.5-5.4-1.5-7c-1-1.5-2.7-2.3-5-2.3c-2.3,0-3.9,0.8-4.9,2.3C647.2,278.3,646.7,280.6,646.7,283.7z"/>
	<path class="st0" d="M706.8,299.4h-8.5v-18.3c0-2.3-0.4-4-1.2-5.1c-0.8-1.1-2.1-1.7-3.8-1.7c-2.4,0-4.1,0.8-5.2,2.4
		c-1.1,1.6-1.6,4.2-1.6,7.9v14.7h-8.5v-31.3h6.5l1.1,4h0.5c1-1.5,2.3-2.7,3.9-3.4c1.7-0.8,3.6-1.2,5.7-1.2c3.6,0,6.4,1,8.3,3
		c1.9,2,2.8,4.8,2.8,8.5V299.4z"/>
	<path class="st0" d="M746,299.4h-8.5v-18.3c0-2.3-0.4-4-1.1-5.1c-0.8-1.1-1.9-1.7-3.6-1.7c-2.2,0-3.8,0.8-4.8,2.4
		c-1,1.6-1.5,4.2-1.5,7.9v14.7H718v-31.3h6.5l1.1,4h0.5c0.8-1.4,2.1-2.6,3.6-3.4c1.6-0.8,3.4-1.2,5.5-1.2c4.7,0,7.9,1.5,9.5,4.6h0.8
		c0.8-1.5,2.1-2.6,3.7-3.4c1.6-0.8,3.5-1.2,5.5-1.2c3.5,0,6.2,0.9,8.1,2.7c1.8,1.8,2.7,4.7,2.7,8.8v20.4H757v-18.3
		c0-2.3-0.4-4-1.1-5.1c-0.8-1.1-1.9-1.7-3.6-1.7c-2.1,0-3.7,0.7-4.7,2.2c-1,1.5-1.6,3.9-1.6,7.1V299.4z"/>
	<path class="st0" d="M790.9,300c-5,0-9-1.4-11.8-4.2c-2.8-2.8-4.3-6.7-4.3-11.8c0-5.2,1.3-9.3,3.9-12.2c2.6-2.9,6.3-4.3,10.9-4.3
		c4.4,0,7.9,1.3,10.3,3.8c2.5,2.5,3.7,6,3.7,10.4v4.1h-20.2c0.1,2.4,0.8,4.3,2.2,5.7c1.3,1.4,3.2,2,5.7,2c1.9,0,3.7-0.2,5.4-0.6
		c1.7-0.4,3.4-1,5.3-1.9v6.6c-1.5,0.7-3.1,1.3-4.8,1.7C795.4,299.8,793.3,300,790.9,300z M789.7,273.6c-1.8,0-3.2,0.6-4.3,1.7
		c-1,1.1-1.6,2.8-1.8,4.9h12c0-2.1-0.6-3.7-1.7-4.9C792.9,274.2,791.5,273.6,789.7,273.6z"/>
	<path class="st0" d="M841.9,299.4h-8.5v-18.3c0-2.3-0.4-4-1.2-5.1c-0.8-1.1-2.1-1.7-3.8-1.7c-2.4,0-4.1,0.8-5.2,2.4
		c-1.1,1.6-1.6,4.2-1.6,7.9v14.7H813v-31.3h6.5l1.1,4h0.5c1-1.5,2.3-2.7,3.9-3.4c1.7-0.8,3.6-1.2,5.7-1.2c3.6,0,6.4,1,8.3,3
		c1.9,2,2.8,4.8,2.8,8.5V299.4z"/>
	<path class="st0" d="M866.3,293.2c1.5,0,3.3-0.3,5.4-1v6.4c-2.1,1-4.7,1.4-7.8,1.4c-3.4,0-5.9-0.9-7.5-2.6
		c-1.6-1.7-2.3-4.3-2.3-7.8v-15.1H850v-3.6l4.7-2.9l2.5-6.6h5.5v6.7h8.8v6.4h-8.8v15.1c0,1.2,0.3,2.1,1,2.7
		C864.3,292.9,865.2,293.2,866.3,293.2z"/>
</g>
</svg>
