<?xml version="1.0" encoding="utf-8"?>
<!-- Generator: Adobe Illustrator 23.0.1, SVG Export Plug-In . SVG Version: 6.00 Build 0)  -->
<svg version="1.1" id="Laag_1" xmlns="http://www.w3.org/2000/svg" xmlns:xlink="http://www.w3.org/1999/xlink" x="0px" y="0px"
	 viewBox="0 0 864 300" style="enable-background:new 0 0 864 300;" xml:space="preserve">
<style type="text/css">
	.st0{fill:#F1B403;}
	.st1{fill:#478AC9;}
	.st2{fill:#25346D;}
	.st3{fill:#FFFFFF;}
</style>
<g>
	<g>
		<path class="st0" d="M526.9,215H414L516.3,20.2v-0.2L527.1,0L526.9,215z"/>
	</g>
	<g>
		<path class="st1" d="M534.4,0l10.8,20.1v0.2L647.5,215H534.6L534.4,0z"/>
	</g>
	<path class="st2" d="M204.5,144.3c-6.8,21.5-19.4,39.2-37.6,52.9c-18.6,14-39.4,21.1-62.4,21.1c-28.8,0-53.4-10.2-73.7-30.6
		c-20.4-20.4-30.6-45-30.6-73.8C0.2,85,10.4,60.4,30.8,40C51.1,19.6,75.6,9.4,104.5,9.4c24.1,0,45.7,7.4,64.7,22.3
		C187.8,46.4,200,65.2,205.8,88h-16.6c-5.6-18.3-16.1-33.3-31.6-44.9c-15.7-11.8-33.4-17.7-53.2-17.7C80,25.4,59.3,34,42.1,51.2
		c-17.3,17.3-26,38.2-26,62.6c0,24.4,8.6,45.2,25.8,62.4c17.2,17.3,38,26,62.5,26c15.5,0,30.2-4,43.9-11.9
		c13.1-7.7,23.7-18,31.7-30.9H69.5v-15.2H204.5z"/>
	<path class="st2" d="M315.5,10.5c28.5,0,52.9,10.1,73.1,30.3c20.2,20.2,30.3,44.6,30.2,73.1c0,28.5-10.1,52.9-30.3,73.1
		c-20.2,20.2-44.6,30.3-73.1,30.3c-28.5,0-52.9-10.1-73.1-30.3c-20.2-20.2-30.3-44.6-30.3-73.1c0.1-28.5,10.2-52.9,30.5-73.1
		C262.6,20.6,287,10.5,315.5,10.5z M315.4,202.8c24.5,0,45.5-8.7,62.9-26c17.3-17.4,26-38.4,26-62.9c0-24.5-8.7-45.5-26-62.9
		c-17.4-17.3-38.4-26-62.9-26c-24.5,0-45.5,8.7-62.9,26c-17.3,17.4-26,38.4-26,62.9c0,24.5,8.7,45.5,26,62.9
		C269.9,194.1,290.8,202.8,315.4,202.8z"/>
	<path class="st2" d="M826,200.2V215H672.9V13.9h14.7v186.4H826z"/>
	<path class="st2" d="M856,215h-14.7V13.8H856V215z"/>
	<g>
		<path class="st2" d="M5,254.2c2.8-0.7,6.6-1,9.8-1c5.9,0,9.6,1.3,12.2,3.8c2,1.8,3.2,4.8,3.2,8c0,6.1-3.6,10-8.8,11.8v0.1
			c3.6,1.1,5.9,4.6,7,9.6c1.5,7,2.4,10.4,3.3,12.2h-3.3c-0.7-1.3-1.7-5.3-2.9-11c-1.4-6.5-4.2-9.4-10.2-9.7h-7v20.7H5V254.2z
			 M8.2,275.3h7.2c7,0,11.5-3.9,11.5-9.8c0-6.9-5.1-9.7-12.2-9.7c-3.1,0-5.4,0.3-6.5,0.6V275.3z"/>
		<path class="st1" d="M58.4,276.2h-18v19.7h20.1v2.7H37.1v-45.1h22.3v2.7H40.3v17.3h18V276.2z"/>
		<path class="st1" d="M65.2,293.6c2.5,1.7,6.1,2.9,9.8,2.9c6.8,0,10.9-3.8,10.9-9.4c0-5.1-2.6-8-9.2-10.6
			c-7.2-2.5-11.6-6.3-11.6-12.4c0-6.6,5.4-11.4,13.1-11.4c4.2,0,7.4,1.1,9,2.1l-1.2,2.7c-1.2-0.9-4.1-2.1-8-2.1
			c-7.3,0-9.8,4.7-9.8,8.2c0,5,2.9,7.6,9.4,10.1c7.4,3,11.4,6.4,11.4,13.1c0,6.6-4.7,12.4-14.3,12.4c-3.9,0-8.4-1.3-10.8-3.1
			L65.2,293.6z"/>
		<path class="st1" d="M117.3,276.2h-18v19.7h20.1v2.7H96v-45.1h22.3v2.7H99.3v17.3h18V276.2z"/>
		<path class="st1" d="M131,282.8l-5.6,15.8h-3.3l16.3-45.1h3.1l16.2,45.1h-3.3l-5.7-15.8H131z M147.9,280.1l-5.5-15.1
			c-1.1-3.1-1.7-5.4-2.3-8h-0.2c-0.6,2.6-1.3,5-2.3,7.8l-5.5,15.2H147.9z"/>
		<path class="st1" d="M163.1,254.2c2.8-0.7,6.6-1,9.8-1c5.9,0,9.6,1.3,12.2,3.8c1.9,1.8,3.1,4.8,3.1,8c0,6.1-3.6,10-8.8,11.8v0.1
			c3.6,1.1,5.9,4.6,7,9.6c1.5,7,2.4,10.4,3.3,12.2h-3.3c-0.7-1.3-1.7-5.3-2.9-11c-1.4-6.5-4.2-9.4-10.2-9.7h-7v20.7h-3.2V254.2z
			 M166.3,275.3h7.2c7,0,11.5-3.9,11.5-9.8c0-6.9-5.1-9.7-12.2-9.7c-3.1,0-5.4,0.3-6.5,0.6V275.3z"/>
		<path class="st1" d="M226.3,297c-2.3,1.1-6.6,2.3-12.2,2.3c-10.9,0-21.4-7-21.4-23c0-13.4,8.6-23.6,22.9-23.6
			c5.8,0,9.1,1.3,10.4,2l-1,2.7c-2.3-1.1-5.6-1.9-9.4-1.9c-12.2,0-19.6,7.9-19.6,20.9c0,12.3,7,20.1,19.1,20.1
			c3.8,0,7.6-0.8,10.2-2.1L226.3,297z"/>
		<path class="st1" d="M235.4,253.5v19.9h24.9v-19.9h3.2v45.1h-3.2V276h-24.9v22.6h-3.2v-45.1H235.4z"/>
		<path class="st1" d="M302,253.5h22.3v2.7h-19.1v17.9h17.5v2.7h-17.5v21.8H302V253.5z"/>
		<path class="st1" d="M368.3,275.6c0,15.9-9.8,23.7-20.2,23.7c-11.1,0-19.7-8.8-19.7-22.9c0-14.8,9-23.8,20.3-23.8
			C360,252.7,368.3,261.6,368.3,275.6z M331.7,276.4c0,10.2,5.9,20.3,16.6,20.3s16.7-9.7,16.7-20.9c0-9.6-5.2-20.4-16.5-20.4
			C337,255.4,331.7,265.8,331.7,276.4z"/>
		<path class="st1" d="M374.5,254.2c2.8-0.7,6.6-1,9.8-1c5.9,0,9.6,1.3,12.2,3.8c1.9,1.8,3.1,4.8,3.1,8c0,6.1-3.6,10-8.8,11.8v0.1
			c3.6,1.1,5.9,4.6,7,9.6c1.5,7,2.4,10.4,3.3,12.2h-3.3c-0.7-1.3-1.7-5.3-2.9-11c-1.4-6.5-4.2-9.4-10.2-9.7h-7v20.7h-3.2V254.2z
			 M377.7,275.3h7.2c7,0,11.5-3.9,11.5-9.8c0-6.9-5.1-9.7-12.2-9.7c-3.1,0-5.3,0.3-6.5,0.6V275.3z"/>
		<path class="st2" d="M466.7,296.6c-2.3,0.9-7,2.5-13.2,2.5c-6,0-11.4-1.5-15.9-5.9c-3.8-3.7-6.2-9.8-6.2-17
			c0-12.5,8.2-23.2,23.6-23.2c4.8,0,8.8,1.1,10.5,2l-1.1,2.7c-2.3-1.1-5.3-1.9-9.6-1.9c-12.4,0-20,8-20,20.3
			c0,12.7,7.4,20.3,19.3,20.3c4.8,0,7.8-0.7,9.4-1.5v-15.9H453v-2.6h13.7V296.6z"/>
		<path class="st1" d="M474.4,253.5h3.2v42.4h20.1v2.7h-23.3V253.5z"/>
		<path class="st1" d="M537.1,275.6c0,15.9-9.8,23.7-20.2,23.7c-11.1,0-19.7-8.8-19.7-22.9c0-14.8,9-23.8,20.3-23.8
			C528.8,252.7,537.1,261.6,537.1,275.6z M500.5,276.4c0,10.2,5.9,20.3,16.6,20.3c10.7,0,16.7-9.7,16.7-20.9
			c0-9.6-5.2-20.4-16.5-20.4C505.8,255.4,500.5,265.8,500.5,276.4z"/>
		<path class="st1" d="M543.3,254.2c2.5-0.6,5.8-1,9.1-1c5.6,0,9.3,1.2,11.8,3.8c1.9,1.8,2.8,4.2,2.8,7.4c0,4.6-3.3,8.5-7.8,10v0.2
			c3.8,0.9,9.6,4.1,9.6,11.5c0,3.7-1.3,6.5-3.4,8.6c-3,3-7.9,4.3-14.3,4.3c-3.4,0-6-0.3-7.8-0.4V254.2z M546.6,273.3h6.6
			c6.6,0,10.6-3.9,10.6-8.8c0-6.3-4.8-8.6-11.5-8.6c-2.9,0-4.7,0.2-5.7,0.5V273.3z M546.6,295.9c1.3,0.3,3.1,0.3,5.6,0.3
			c6.9,0,13.4-2.5,13.4-10.2c0-7.1-6.1-10.2-13.2-10.2h-5.7V295.9z"/>
		<path class="st1" d="M580.9,282.8l-5.6,15.8h-3.3l16.3-45.1h3.1l16.2,45.1h-3.3l-5.7-15.8H580.9z M597.8,280.1l-5.5-15.1
			c-1.1-3.1-1.7-5.4-2.3-8h-0.2c-0.6,2.6-1.3,5-2.3,7.8l-5.5,15.2H597.8z"/>
		<path class="st1" d="M613,253.5h3.2v42.4h20.1v2.7H613V253.5z"/>
		<path class="st2" d="M678.4,253.5h3.2v31.2c0,11.5-5.8,14.7-12.2,14.7c-2.1,0-4.4-0.5-5.5-1.1l0.7-2.5c1.1,0.5,2.7,0.9,4.7,0.9
			c5.8,0,9-2.6,9-12.6V253.5z"/>
		<path class="st1" d="M693.5,253.5v27.2c0,11.4,5.4,15.9,12,15.9c7.5,0,12.6-4.8,12.6-15.9v-27.2h3.2v26.9c0,13.9-7.5,18.9-16,18.9
			c-7.9,0-15.1-4.6-15.1-18.4v-27.4H693.5z"/>
		<path class="st1" d="M729.2,293.6c2.5,1.7,6.1,2.9,9.8,2.9c6.8,0,10.9-3.8,10.9-9.4c0-5.1-2.6-8-9.2-10.6
			c-7.2-2.5-11.6-6.3-11.6-12.4c0-6.6,5.4-11.4,13.1-11.4c4.2,0,7.4,1.1,9,2.1l-1.2,2.7c-1.2-0.9-4.1-2.1-8-2.1
			c-7.3,0-9.8,4.7-9.8,8.2c0,5,2.9,7.6,9.4,10.1c7.4,3,11.4,6.4,11.4,13.1c0,6.6-4.7,12.4-14.3,12.4c-3.9,0-8.4-1.3-10.8-3.1
			L729.2,293.6z"/>
		<path class="st1" d="M768.5,256.2h-14.7v-2.7h32.7v2.7h-14.7v42.4h-3.2V256.2z"/>
		<path class="st1" d="M792.6,253.5v45.1h-3.2v-45.1H792.6z"/>
		<path class="st1" d="M832.4,297c-2.3,1.1-6.6,2.3-12.2,2.3c-10.9,0-21.3-7-21.3-23c0-13.4,8.6-23.6,22.9-23.6
			c5.8,0,9.1,1.3,10.4,2l-1,2.7c-2.3-1.1-5.6-1.9-9.4-1.9c-12.2,0-19.6,7.9-19.6,20.9c0,12.3,7,20.1,19.1,20.1
			c3.8,0,7.6-0.8,10.2-2.1L832.4,297z"/>
		<path class="st1" d="M859.6,276.2h-18v19.7h20.1v2.7h-23.4v-45.1h22.3v2.7h-19.1v17.3h18V276.2z"/>
	</g>
	<g>
		<path class="st3" d="M469.9,134l21.8,52.5h-21.8h-21.8l14.4-38.1l-19.5,38.1c3.2,8,15,15.9,26.8,15.9c11.7,0,23.5-7.9,26.8-15.9
			L469.9,134z"/>
		<path class="st3" d="M592.3,134l21.8,52.5h-21.8h-21.8l14.5-38.1l-19.5,38.1c3.3,8,15,15.9,26.8,15.9c11.8,0,23.5-7.9,26.8-15.9
			L592.3,134z"/>
		<path class="st3" d="M531.1,110.8c-14.2,0-41.2,3-61.2,23.2c46.5-18.9,54.7,40,61.2,72.5c6.5-32.5,14.7-91.4,61.2-72.5
			C572.3,113.8,545.4,110.8,531.1,110.8z"/>
		<path class="st3" d="M543.7,92.7c0,7.3-5.7,13.3-12.6,13.3c-7,0-12.6-5.9-12.6-13.3c0-7.3,5.6-13.3,12.6-13.3
			C538.1,79.4,543.7,85.4,543.7,92.7z"/>
	</g>
</g>
</svg>
