<?xml version="1.0" encoding="utf-8"?>
<!-- Generator: Adobe Illustrator 23.0.1, SVG Export Plug-In . SVG Version: 6.00 Build 0)  -->
<svg version="1.1" id="Laag_1" xmlns="http://www.w3.org/2000/svg" xmlns:xlink="http://www.w3.org/1999/xlink" x="0px" y="0px"
	 viewBox="0 0 786 300" style="enable-background:new 0 0 786 300;" xml:space="preserve">
<style type="text/css">
	.st0{clip-path:url(#SVGID_2_);}
	.st1{clip-path:url(#SVGID_4_);}
	.st2{font-family:'AvenirLTStd-Medium';}
	.st3{font-size:75.0092px;}
	.st4{fill:#F58532;}
	.st5{letter-spacing:-1;}
</style>
<polygon points="95.9,20.9 137.7,122.6 81.4,122.6 81.4,140.6 145.4,140.6 166.7,191.4 189.7,191.4 105.5,-2.1 86.4,-2.1 2.1,191.4 
	25.1,191.4 "/>
<g>
	<defs>
		<rect id="SVGID_1_" x="-31" y="-2.1" width="870" height="311.7"/>
	</defs>
	<clipPath id="SVGID_2_">
		<use xlink:href="#SVGID_1_"  style="overflow:visible;"/>
	</clipPath>
	<path class="st0" d="M262.9,15.9h35c35.2,0,47.3,15.1,47.3,33.7c0,18.5-12,33.9-47.3,33.9h-2.8v18h0.6l53,89.9h24L317,99.6
		c31.7-2.7,49.5-23.2,49.5-50c0-34.7-24.3-51.7-63.7-51.7h-59.6v193.5h19.7V15.9z"/>
	<line class="st0" x1="295.2" y1="101.5" x2="295.2" y2="83.5"/>
	<path class="st0" d="M429.9-2.1h64.3c48.4,0,101.7,32.3,101.7,96.8c0,64.5-53.3,96.8-101.7,96.8h-64.3V-2.1z M449.6,173.4h38.3
		c59,0,86.6-38.8,86.6-78.7c0-40-27.6-78.8-86.6-78.8h-38.3V173.4z"/>
	<rect x="662.6" y="-2.1" class="st0" width="19.7" height="193.6"/>
</g>
<g>
	<defs>
		<rect id="SVGID_3_" x="-31" y="-2.1" width="870" height="311.7"/>
	</defs>
	<clipPath id="SVGID_4_">
		<use xlink:href="#SVGID_3_"  style="overflow:visible;"/>
	</clipPath>
	<g class="st1">
		<text transform="matrix(1 0 0 1 -4.9785 299.4307)" class="st2 st3">R</text>
	</g>
	<g class="st1">
		<text transform="matrix(1 0 0 1 39.9937 299.4307)"><tspan x="0" y="0" class="st4 st2 st3">e</tspan><tspan x="41.6" y="0" class="st4 st2 st3">s</tspan><tspan x="74.7" y="0" class="st4 st2 st3">e</tspan><tspan x="115.8" y="0" class="st4 st2 st3">a</tspan><tspan x="155" y="0" class="st4 st2 st3 st5">r</tspan><tspan x="181.6" y="0" class="st4 st2 st3">c</tspan><tspan x="218" y="0" class="st4 st2 st3">h </tspan><tspan x="280.6" y="0" class="st4 st2 st3 st5">f</tspan><tspan x="304.1" y="0" class="st4 st2 st3">o</tspan><tspan x="348.5" y="0" class="st4 st2 st3">r </tspan></text>
	</g>
	<g class="st1">
		<text transform="matrix(1 0 0 1 437.043 299.4307)" class="st2 st3">I</text>
	</g>
	<g class="st1">
		<text transform="matrix(1 0 0 1 457.5078 299.4307)"><tspan x="0" y="0" class="st4 st2 st3">n</tspan><tspan x="41.7" y="0" class="st4 st2 st3">n</tspan><tspan x="83.1" y="0" class="st4 st2 st3 st5">o</tspan><tspan x="126.1" y="0" class="st4 st2 st3">v</tspan><tspan x="163" y="0" class="st4 st2 st3">a</tspan><tspan x="202.3" y="0" class="st4 st2 st3 st5">t</tspan><tspan x="228.5" y="0" class="st4 st2 st3">i</tspan><tspan x="246" y="0" class="st4 st2 st3">o</tspan><tspan x="290.4" y="0" class="st4 st2 st3">n</tspan></text>
	</g>
</g>
</svg>
