<svg id="Laag_1" data-name="Laag 1" xmlns="http://www.w3.org/2000/svg" viewBox="0 0 1147.17 300.25"><defs><style>.cls-1,.cls-3{fill:#f9a83c;}.cls-2,.cls-4,.cls-5,.cls-7,.cls-8{fill:#9c9ea1;}.cls-3{font-size:63px;font-family:MyriadPro-Regular, Myriad Pro;letter-spacing:0.13em;}.cls-4{letter-spacing:0.13em;}.cls-5{letter-spacing:0.12em;}.cls-6{letter-spacing:0.12em;}.cls-7{letter-spacing:0.12em;}.cls-8{letter-spacing:0.13em;}</style></defs><title>Logo-AGORA</title><path class="cls-1" d="M142.56,286.12C64,286.12,0,222.17,0,143.56S64,1,142.55,1,285.11,65,285.11,143.56,221.16,286.12,142.56,286.12Zm0-273.12C70.57,13,12,71.57,12,143.56S70.57,274.12,142.56,274.12s130.55-58.57,130.55-130.56S214.54,13,142.55,13Z" transform="translate(0 -1)"/><polygon class="cls-1" points="65.39 207.16 142.86 72.69 219.75 207.16 233.58 207.16 148.09 57.65 137.68 57.64 51.54 207.16 65.39 207.16"/><path class="cls-2" d="M631.55,55.63a76.27,76.27,0,1,0,76.26,76.27A76.36,76.36,0,0,0,631.55,55.63Zm0,140.53a64.26,64.26,0,1,1,64.27-64.26A64.34,64.34,0,0,1,631.54,196.16Z" transform="translate(0 -1)"/><path class="cls-2" d="M438.54,133v12h45.91a64.16,64.16,0,1,1-17.4-58.51c1,1,1.88,2.05,2.8,3.09h15.21A77,77,0,0,0,475.53,78a75.27,75.27,0,1,0,22.28,55H438.54Z" transform="translate(0 -1)"/><polygon class="cls-2" points="1052.07 57.65 1041.66 57.64 955.51 207.16 969.36 207.16 1046.84 72.69 1123.72 207.16 1137.55 207.16 1052.07 57.65"/><path class="cls-2" d="M840,135.83a41.1,41.1,0,0,0-9.68-80c-.46,0-9.19-.16-9.19-.16h-55.4V208.16h12V67.64h49.46a28.78,28.78,0,0,1,10.64,2,29,29,0,0,1,11.52,45.92L849,116c-.55.63-1.13,1.25-1.74,1.83a29.18,29.18,0,0,1-3.91,3.09,27,27,0,0,1-12.18,3.39H818.81v11.54l57.36,72.33h15.32L835,136.91A22.55,22.55,0,0,0,840,135.83Z" transform="translate(0 -1)"/><text class="cls-3" transform="translate(353.5 284.5)">R<tspan class="cls-4" x="42.34" y="0">esea</tspan><tspan class="cls-5" x="193.53" y="0">r</tspan><tspan class="cls-4" x="221.7" y="0">ch in </tspan><tspan class="cls-6" x="410.44" y="0">A</tspan><tspan class="cls-7" x="456.43" y="0">g</tspan><tspan class="cls-2" x="499.46" y="0">r</tspan><tspan class="cls-8" x="528.5" y="0">icultu</tspan><tspan class="cls-5" x="725.75" y="0">r</tspan><tspan class="cls-4" x="753.91" y="0">e</tspan></text></svg>